<svg width="640" height="168" viewBox="0 0 640 168" fill="none" xmlns="http://www.w3.org/2000/svg">
  <defs>
    <filter id="greenGlow" x="0" y="0" width="240" height="140" filterUnits="userSpaceOnUse">
      <feGaussianBlur stdDeviation="6" result="blur"/>
      <feMerge>
        <feMergeNode in="blur"/>
        <feMergeNode in="SourceGraphic"/>
      </feMerge>
    </filter>
    <filter id="goldGlow" x="210" y="0" width="150" height="140" filterUnits="userSpaceOnUse">
      <feGaussianBlur stdDeviation="5" result="blur"/>
      <feMerge>
        <feMergeNode in="blur"/>
        <feMergeNode in="SourceGraphic"/>
      </feMerge>
    </filter>
  </defs>

  <g transform="translate(10 12)">
    <g filter="url(#greenGlow)" stroke="#35F06A" stroke-width="6.5" stroke-linecap="round" stroke-linejoin="round">
      <path d="M136 18H52L18 48V106L52 136H136" opacity="0.96"/>
      <path d="M126 38H66L38 62V92L66 116H126" opacity="0.96"/>
      <path d="M136 18L126 48H90" opacity="0.96"/>
      <path d="M136 136L126 106H90" opacity="0.96"/>
      <circle cx="136" cy="18" r="6" fill="#72FF7E" stroke="none"/>
      <circle cx="98" cy="38" r="6" fill="#72FF7E" stroke="none"/>
      <circle cx="136" cy="136" r="6" fill="#72FF7E" stroke="none"/>
      <circle cx="110" cy="120" r="6" fill="#72FF7E" stroke="none"/>
      <circle cx="98" cy="106" r="6" fill="#72FF7E" stroke="none"/>
      <circle cx="34" cy="62" r="6" fill="#72FF7E" stroke="none"/>
      <circle cx="34" cy="106" r="6" fill="#72FF7E" stroke="none"/>
    </g>

    <g filter="url(#goldGlow)" transform="translate(164 8)">
      <path d="M24 0H142L132 34H97V116L67 140V34H14L24 0Z" fill="#FFD400"/>
      <path d="M24 0H142L132 34H97V116L67 140V34H14L24 0Z" stroke="#FFE66B" stroke-width="2"/>
    </g>

    <g transform="translate(312 46)">
      <text x="0" y="60" fill="#F5F7FB" font-family="Plus Jakarta Sans, Arial, sans-serif" font-size="52" font-weight="800" letter-spacing="-0.03em">
        CameroonTechJobs
      </text>
    </g>
  </g>
</svg>
